<?xml version="1.0" standalone="no"?>
<!DOCTYPE svg PUBLIC "-//W3C//DTD SVG 20010904//EN"
 "http://www.w3.org/TR/2001/REC-SVG-20010904/DTD/svg10.dtd">
<svg version="1.0" xmlns="http://www.w3.org/2000/svg"
 width="500.000000pt" height="500.000000pt" viewBox="0 0 500.000000 500.000000"
 preserveAspectRatio="xMidYMid meet">

<g transform="translate(0.000000,500.000000) scale(0.100000,-0.100000)"
fill="#000000" stroke="none">
<path d="M2225 4030 c-10 -11 -13 -20 -7 -20 6 0 14 5 18 11 3 6 17 9 30 6 13
-2 24 0 24 4 0 5 -4 9 -9 9 -5 0 -16 2 -23 5 -8 3 -23 -3 -33 -15z"/>
<path d="M2242 3997 c-18 -5 -31 -15 -29 -21 2 -6 13 -46 23 -89 l18 -78 30 7
c47 10 82 26 69 31 -6 2 -28 0 -47 -5 -28 -8 -36 -7 -40 5 -13 34 -6 51 24 58
17 4 30 11 30 16 0 12 -12 11 -43 0 -20 -8 -27 -6 -31 5 -14 37 -6 53 29 60
19 3 35 10 35 15 0 11 -26 10 -68 -4z"/>
<path d="M2070 3933 c0 -20 63 -163 72 -163 5 0 8 4 6 8 -1 5 -16 43 -33 85
-16 42 -33 77 -37 77 -5 0 -8 -3 -8 -7z"/>
<path d="M1870 3841 c0 -10 80 -161 85 -161 1 0 24 12 51 27 51 29 46 45 -6
18 -39 -20 -47 -14 -85 65 -26 54 -45 76 -45 51z"/>
<path d="M1719 3744 c-19 -14 -33 -30 -32 -35 3 -7 86 -125 98 -138 5 -5 85
53 85 62 0 12 -14 8 -40 -13 -32 -25 -42 -25 -59 2 -12 20 -11 24 14 45 35 31
25 42 -13 14 l-30 -21 -17 26 c-17 26 -16 27 17 55 41 35 24 38 -23 3z"/>
<path d="M3010 3726 c0 -3 37 -19 83 -36 177 -69 308 -143 432 -246 77 -64
103 -78 45 -25 -124 115 -292 219 -442 275 -69 26 -118 39 -118 32z"/>
<path d="M1540 3595 c-30 -30 -49 -55 -43 -55 6 0 16 7 23 15 20 24 31 19 92
-42 72 -71 77 -55 7 22 l-52 56 22 23 c13 13 18 26 13 29 -5 4 -33 -18 -62
-48z"/>
<path d="M1376 3411 c-6 -9 97 -181 105 -175 4 2 0 17 -9 33 -16 28 -15 30 11
64 24 32 30 35 57 27 17 -5 32 -5 35 0 3 5 -11 14 -32 19 -92 24 -164 38 -167
32z m73 -27 c36 -7 38 -14 13 -44 l-18 -23 -22 37 c-23 38 -22 39 27 30z"/>
<path d="M1665 3075 c-97 -257 -101 -266 -132 -277 -52 -19 -39 -28 37 -28 74
0 90 11 40 29 -16 5 -30 12 -30 14 0 2 13 35 28 73 l29 69 95 3 95 3 27 -75
c31 -89 32 -96 7 -96 -11 0 -23 -4 -26 -10 -4 -6 31 -10 96 -10 63 0 99 4 94
9 -6 5 -21 11 -34 13 -22 3 -33 26 -119 276 -52 149 -98 272 -101 272 -3 0
-51 -120 -106 -265z m115 22 c22 -64 40 -119 40 -122 0 -3 -38 -5 -85 -5 -57
0 -85 4 -85 11 0 16 82 240 86 236 2 -2 22 -56 44 -120z"/>
<path d="M3151 3323 c-48 -25 -73 -63 -78 -120 -6 -59 15 -114 52 -139 15 -9
72 -30 128 -46 55 -15 110 -34 122 -42 58 -38 54 -134 -7 -177 -45 -33 -122
-37 -182 -10 -42 18 -50 27 -77 86 -16 36 -31 65 -34 65 -3 0 -5 -40 -5 -90
l0 -90 34 17 c32 15 37 15 75 -1 95 -37 207 -8 243 64 33 66 18 171 -30 214
-12 10 -69 32 -127 47 -120 33 -152 50 -162 87 -9 38 9 93 39 115 36 27 122
34 170 14 28 -12 43 -28 63 -66 14 -28 28 -51 30 -51 3 0 5 32 5 71 0 69 -1
71 -22 64 -25 -8 -32 -8 -133 0 -56 5 -77 2 -104 -12z"/>
<path d="M2055 3320 c3 -5 17 -10 31 -10 l24 0 0 -260 0 -260 -24 0 c-14 0
-28 -4 -31 -10 -4 -6 30 -10 95 -10 65 0 99 4 95 10 -3 6 -17 10 -31 10 l-24
0 0 125 0 125 48 0 c50 0 84 -17 102 -51 6 -11 17 -56 25 -101 8 -44 22 -89
31 -99 24 -27 94 -25 125 2 23 20 19 21 -23 4 -25 -10 -38 12 -53 89 -18 95
-31 117 -85 143 l-42 19 40 12 c79 24 117 94 93 172 -22 76 -93 100 -288 100
-74 0 -112 -4 -108 -10z m284 -36 c53 -44 54 -143 1 -196 -25 -25 -36 -28 -89
-28 l-61 0 0 125 0 125 59 0 c49 0 65 -4 90 -26z"/>
<path d="M2550 3255 c0 -41 4 -75 9 -75 5 0 19 29 32 65 l23 65 63 0 63 0 -2
-257 -3 -258 -25 -3 c-14 -2 -29 -8 -35 -13 -5 -5 31 -9 94 -9 65 0 100 4 96
10 -3 6 -17 10 -31 10 l-24 0 0 260 0 261 61 -3 61 -3 22 -59 c32 -86 46 -84
46 8 l0 76 -225 0 -225 0 0 -75z"/>
<path d="M3755 2948 c2 -13 12 -63 21 -112 9 -49 20 -99 25 -110 8 -18 9 -17
4 7 -27 134 -35 190 -31 195 3 3 6 -2 6 -11 0 -9 5 -16 12 -14 19 3 73 -84 91
-149 10 -32 24 -79 33 -104 22 -60 28 -119 15 -150 l-9 -25 -7 32 c-4 18 -11
30 -15 28 -9 -6 -48 52 -68 100 l-12 30 5 -30 c4 -16 19 -48 34 -70 15 -22 35
-62 44 -89 18 -53 23 -126 8 -126 -4 0 -6 -23 -3 -51 5 -51 -18 -160 -44 -209
-12 -22 -13 -14 -15 75 -2 140 -6 176 -23 193 -15 15 -36 9 -36 -11 0 -8 3 -7
9 2 14 21 31 3 31 -32 l-1 -32 -14 25 c-10 17 -14 20 -15 9 0 -9 9 -24 20 -34
14 -13 20 -31 20 -62 0 -30 -4 -42 -11 -37 -7 4 -7 -2 1 -17 15 -27 8 -185 -9
-202 -6 -6 -11 -24 -11 -39 0 -41 -87 -208 -124 -240 -18 -14 -45 -45 -61 -68
-20 -29 -31 -37 -36 -28 -7 10 -9 9 -9 -3 0 -27 -75 -122 -128 -161 -52 -40
-75 -49 -50 -20 9 9 23 32 32 49 9 18 33 41 54 52 43 22 68 48 58 58 -4 4 -16
2 -26 -5 -25 -16 -25 -10 2 38 18 31 20 42 10 52 -9 9 -15 9 -24 -1 -11 -10
-9 -11 6 -5 16 6 18 4 13 -10 -4 -10 -7 -22 -7 -27 0 -16 -18 -10 -24 9 -3 9
-4 4 -2 -13 2 -16 0 -38 -6 -49 -8 -14 -7 -17 2 -11 8 5 11 3 8 -6 -3 -8 -9
-14 -15 -14 -6 0 -20 -11 -32 -25 l-20 -25 -1 23 c0 12 7 34 16 47 18 28 10
53 -12 34 -9 -8 -14 -33 -14 -76 0 -61 -2 -66 -41 -106 -35 -37 -40 -39 -34
-17 6 24 5 24 -10 -3 -17 -29 -105 -78 -195 -109 -51 -17 -52 -18 -15 -13 22
3 121 6 220 7 l180 2 -137 5 c-75 3 -139 9 -143 12 -9 10 78 27 165 34 83 6
136 -4 178 -31 15 -10 30 -17 35 -16 4 1 7 -2 7 -7 0 -5 -10 -12 -22 -14 -17
-3 -14 -5 10 -6 17 0 35 -1 39 -2 4 0 9 4 11 10 2 6 -27 26 -65 43 -61 29 -78
32 -163 33 -52 0 -113 -3 -135 -7 l-40 -8 44 21 c25 11 81 42 125 68 52 32
106 55 152 66 65 15 74 15 110 1 31 -13 35 -13 20 -2 -17 14 -15 15 25 19 42
3 42 4 -11 6 -75 3 -37 19 48 20 58 1 66 -2 94 -29 16 -17 28 -38 26 -47 -4
-19 -9 -19 -68 -8 -24 4 -18 0 20 -14 30 -11 57 -20 60 -21 16 -1 -5 73 -27
95 -48 48 -122 50 -243 6 -30 -10 -73 -23 -95 -27 l-40 -7 68 57 c38 31 63 56
57 56 -7 0 6 21 28 48 21 26 47 59 57 75 20 30 135 109 168 114 37 6 101 49
150 102 26 27 47 55 47 60 0 17 -15 21 -46 11 -22 -6 -24 -9 -9 -10 11 -1 26
-2 33 -1 36 5 -66 -102 -128 -134 -33 -17 -60 -14 -60 5 0 14 71 88 108 112
15 10 22 18 15 18 -21 0 -122 -100 -132 -133 -7 -21 -25 -40 -52 -55 l-40 -23
22 43 c12 23 28 71 35 107 27 127 135 295 219 338 54 28 89 75 120 161 14 38
25 72 25 75 0 3 -26 -6 -57 -20 -59 -26 -113 -68 -113 -87 0 -6 7 0 16 12 23
34 113 77 128 61 8 -9 8 -10 -3 -4 -9 5 -12 4 -7 -3 24 -40 -82 -192 -133
-192 -25 0 -25 5 -6 90 3 14 -1 10 -9 -10 -8 -19 -15 -51 -15 -70 -1 -38 -15
-63 -68 -123 -34 -38 -42 -31 -22 20 12 29 42 312 42 398 0 28 -7 70 -16 95
-9 25 -25 74 -36 109 -32 104 -155 274 -136 189z m31 -1135 c-8 -15 -15 -25
-16 -21 0 12 23 58 27 54 3 -2 -2 -17 -11 -33z m-116 -166 c0 -2 -12 -14 -27
-28 l-28 -24 24 28 c23 25 31 32 31 24z m-220 -81 c0 -3 -4 -8 -10 -11 -5 -3
-10 -1 -10 4 0 6 5 11 10 11 6 0 10 -2 10 -4z"/>
<path d="M3811 2684 c0 -11 3 -14 6 -6 3 7 2 16 -1 19 -3 4 -6 -2 -5 -13z"/>
<path d="M3700 2621 c8 -6 22 -11 31 -11 22 0 75 -58 93 -102 23 -55 20 -56
-26 -13 -31 29 -35 31 -14 8 17 -18 27 -33 24 -33 -8 0 -105 59 -147 89 -36
26 -28 40 11 21 22 -11 22 -10 4 4 -11 9 -25 16 -30 17 -6 1 0 5 14 9 l25 8
-25 0 c-14 0 -33 -3 -44 -7 -16 -6 -11 -13 35 -53 30 -25 82 -60 117 -78 37
-19 74 -47 89 -69 39 -53 49 -61 24 -19 -12 20 -29 60 -37 89 -19 62 -84 135
-129 144 -23 5 -26 4 -15 -4z"/>
<path d="M2163 2342 c-91 -50 -106 -182 -29 -249 23 -21 59 -36 121 -52 140
-35 175 -62 175 -132 0 -75 -77 -127 -171 -116 -78 10 -103 28 -135 102 -16
36 -32 65 -36 65 -5 0 -8 -41 -8 -90 l0 -91 32 17 c29 15 35 15 89 -1 102 -31
181 -11 233 58 26 35 27 137 3 184 -22 41 -52 57 -168 88 -50 13 -102 31 -116
40 -81 53 -32 172 74 182 27 3 67 0 91 -6 37 -10 45 -18 72 -69 l29 -57 1 74
c0 72 -1 73 -22 66 -26 -8 -26 -8 -128 0 -61 4 -81 2 -107 -13z"/>
<path d="M2893 2344 c-59 -30 -92 -113 -73 -184 16 -60 63 -93 165 -119 140
-35 175 -62 175 -132 0 -75 -77 -127 -171 -116 -78 10 -103 28 -135 102 -16
36 -32 65 -36 65 -5 0 -8 -38 -8 -85 0 -47 4 -85 10 -85 5 0 20 5 34 11 19 9
35 8 76 -6 98 -32 182 -11 234 58 26 35 27 137 3 184 -22 41 -52 57 -168 88
-50 13 -102 31 -116 40 -81 53 -32 172 74 182 27 3 67 0 91 -6 37 -10 45 -18
72 -69 l29 -57 1 74 c0 72 -1 73 -22 66 -26 -8 -26 -8 -128 0 -59 5 -82 2
-107 -11z"/>
<path d="M1806 2341 c5 -5 20 -11 34 -13 l25 -3 0 -255 0 -255 -25 -3 c-14 -2
-29 -8 -35 -13 -5 -5 31 -9 94 -9 65 0 100 4 96 10 -3 6 -17 10 -31 10 l-24 0
0 260 0 260 30 0 c17 0 30 5 30 10 0 6 -41 10 -102 10 -62 0 -98 -4 -92 -9z"/>
<path d="M2535 2340 c3 -5 17 -10 31 -10 l24 0 0 -260 0 -260 -24 0 c-14 0
-28 -4 -31 -10 -4 -6 30 -10 95 -10 65 0 99 4 95 10 -3 6 -17 10 -31 10 l-24
0 0 260 0 260 24 0 c14 0 28 5 31 10 4 6 -30 10 -95 10 -65 0 -99 -4 -95 -10z"/>
<path d="M3680 2298 c45 -25 72 -60 84 -110 5 -23 3 -26 -19 -24 -25 3 -142
103 -137 118 1 4 -4 8 -10 9 -7 0 -4 4 7 9 16 7 11 9 -20 9 l-40 0 37 -32 c95
-83 128 -110 156 -127 31 -19 42 -44 58 -133 3 -21 9 -36 11 -33 3 3 -2 40
-11 83 -9 43 -21 101 -26 129 -12 58 -56 108 -105 119 -25 6 -22 3 15 -17z"/>
<path d="M3784 2257 c-6 -17 12 -57 26 -57 16 0 12 46 -5 60 -12 10 -16 9 -21
-3z m26 -30 c0 -5 -4 -5 -10 -2 -5 3 -10 14 -10 23 0 15 2 15 10 2 5 -8 10
-19 10 -23z"/>
<path d="M3725 2200 c10 -11 20 -20 23 -20 3 0 -3 9 -13 20 -10 11 -20 20 -23
20 -3 0 3 -9 13 -20z"/>
<path d="M3612 2058 c-19 -19 -14 -30 8 -18 41 22 49 -92 14 -212 -6 -21 -36
-17 -45 8 -6 16 -8 16 -8 2 -1 -9 6 -23 14 -32 8 -8 15 -27 16 -43 l1 -28 7
30 c4 17 12 39 18 50 6 11 16 52 23 91 10 55 10 79 1 107 -15 44 -33 61 -49
45z"/>
<path d="M3586 1989 c-3 -17 -5 -55 -5 -83 1 -44 3 -40 10 28 9 83 6 110 -5
55z"/>
<path d="M3979 1913 c-13 -16 -12 -17 4 -4 9 7 17 15 17 17 0 8 -8 3 -21 -13z"/>
<path d="M3316 1731 c55 -145 60 -172 47 -248 -15 -83 -9 -96 7 -16 7 32 24
85 38 117 45 102 31 167 -48 210 -78 43 -82 38 -44 -63z m39 55 c18 -8 41 -26
50 -40 21 -32 22 -105 1 -143 l-15 -28 -2 45 -2 45 -6 -39 -6 -40 -28 87 c-30
93 -39 127 -31 127 3 0 20 -6 39 -14z"/>
<path d="M1544 1752 c31 -59 136 -190 207 -257 139 -132 309 -227 508 -286 35
-10 62 -17 60 -15 -13 13 -116 78 -172 109 -109 61 -226 154 -336 266 -57 58
-98 95 -91 82 19 -37 188 -202 270 -262 41 -31 112 -78 158 -104 45 -26 82
-49 82 -51 0 -8 -136 48 -213 88 -161 84 -334 239 -433 387 -49 74 -65 91 -40
43z"/>
<path d="M3928 1759 c-10 -5 -18 -15 -18 -21 0 -6 8 -4 18 5 25 23 35 21 22
-3 -6 -11 -19 -20 -30 -20 -10 0 -22 -9 -25 -20 -8 -25 -72 -70 -100 -70 -17
0 -17 -2 -5 -10 19 -13 43 -13 35 0 -3 5 6 12 20 16 14 3 25 10 25 15 0 5 8 6
18 3 12 -4 13 -3 4 3 -13 10 -2 25 51 64 44 33 31 65 -15 38z"/>
<path d="M3602 1695 c0 -16 2 -22 5 -12 2 9 2 23 0 30 -3 6 -5 -1 -5 -18z"/>
<path d="M4024 1701 c-18 -11 -42 -21 -55 -24 -13 -2 6 -5 42 -6 67 -1 100 14
84 39 -9 15 -36 12 -71 -9z m64 -3 c-3 -7 -20 -14 -39 -16 -32 -2 -33 -1 -15
13 24 18 59 20 54 3z"/>
<path d="M3918 1663 c7 -3 16 -2 19 1 4 3 -2 6 -13 5 -11 0 -14 -3 -6 -6z"/>
<path d="M3592 1630 c0 -14 2 -19 5 -12 2 6 2 18 0 25 -3 6 -5 1 -5 -13z"/>
<path d="M3690 1595 l-45 -24 40 0 c31 0 36 2 20 9 -11 5 -18 9 -15 9 25 5 80
30 65 30 -11 0 -40 -11 -65 -24z"/>
<path d="M3883 1603 c9 -2 23 -2 30 0 6 3 -1 5 -18 5 -16 0 -22 -2 -12 -5z"/>
<path d="M3944 1588 c10 -6 27 -19 37 -29 23 -23 69 -26 69 -4 0 19 -25 31
-80 38 -34 4 -41 3 -26 -5z m80 -14 c9 -3 16 -10 16 -15 0 -15 -37 -10 -50 6
-10 12 -10 15 3 15 8 0 22 -3 31 -6z"/>
<path d="M3748 1573 c6 -2 18 -2 25 0 6 3 1 5 -13 5 -14 0 -19 -2 -12 -5z"/>
<path d="M3825 1571 l-29 -6 42 -19 c40 -18 44 -18 59 -3 15 15 14 17 -11 27
-15 5 -28 9 -29 9 -1 -1 -15 -4 -32 -8z m65 -21 c0 -12 -8 -12 -35 0 -18 8
-17 9 8 9 15 1 27 -3 27 -9z"/>
<path d="M3240 1475 c-33 -48 -122 -116 -208 -159 -29 -15 -76 -41 -105 -60
-88 -55 -112 -61 -231 -59 -60 1 -112 6 -115 11 -3 5 -12 11 -19 13 -7 3 23
13 68 23 45 10 79 20 77 23 -3 2 -46 -6 -96 -18 -89 -21 -92 -21 -187 -4 -52
9 -98 14 -101 11 -4 -3 3 -6 13 -6 24 0 252 -64 309 -86 36 -14 95 -48 163
-92 12 -8 22 -12 22 -9 0 3 -16 15 -36 28 -27 16 -32 24 -22 30 10 7 10 9 -2
10 -8 1 -18 1 -22 0 -5 0 -17 8 -29 20 l-21 21 24 -7 c102 -31 188 -86 188
-121 0 -12 -4 -12 -35 0 -19 8 -35 14 -35 12 0 -2 25 -20 56 -40 31 -21 54
-34 52 -29 -2 4 -15 32 -28 62 -23 51 -28 56 -104 92 -75 35 -78 38 -46 38 19
0 53 -4 74 -9 26 -5 46 -5 55 1 12 8 10 8 -9 4 -22 -5 -23 -5 -6 6 23 14 129
6 204 -16 56 -17 137 -80 125 -98 -3 -6 -1 -7 5 -3 7 4 17 4 23 0 8 -4 7 -9
-2 -15 -9 -5 -27 -1 -48 12 -18 11 -35 18 -37 16 -5 -5 64 -43 94 -52 29 -9
30 19 1 43 -12 9 -43 36 -70 59 -46 40 -99 59 -219 76 -19 3 -15 6 18 12 24 4
38 11 32 15 -7 4 17 19 57 36 100 42 197 143 217 227 10 40 -9 33 -44 -18z
m30 -6 c0 -6 -14 -24 -32 -41 -18 -16 -33 -37 -34 -45 -5 -29 -40 -57 -129
-99 -115 -54 -132 -59 -132 -39 0 9 6 14 14 11 8 -3 11 -1 8 4 -3 5 29 27 72
49 81 40 185 115 210 151 16 22 23 25 23 9z"/>
<path d="M3179 1373 c-13 -16 -12 -17 4 -4 9 7 17 15 17 17 0 8 -8 3 -21 -13z"/>
<path d="M2556 1448 c-9 -12 -16 -26 -16 -31 0 -16 -74 -98 -101 -113 -41 -21
-52 -18 -38 9 10 18 8 18 -14 -5 -31 -33 -67 -36 -120 -9 -29 15 -37 16 -37 5
0 -7 10 -19 23 -25 12 -7 63 -54 114 -104 67 -68 101 -112 127 -163 38 -75 52
-90 68 -74 6 6 -4 23 -31 50 -23 22 -41 43 -41 46 0 14 18 3 58 -34 42 -40 82
-53 82 -26 0 20 -39 46 -68 46 -16 0 -45 21 -85 61 -57 56 -58 62 -10 42 11
-4 14 -3 9 5 -5 9 6 12 38 12 34 0 46 4 46 15 0 17 -55 21 -65 5 -9 -14 -71
-12 -87 3 -7 7 -32 27 -56 46 -24 18 -41 38 -39 44 6 20 58 26 155 18 104 -9
132 -6 132 15 0 17 -24 18 -51 3 -11 -5 -43 -9 -72 -7 l-52 3 65 17 c36 10 48
15 27 12 l-39 -5 26 37 c13 20 42 47 63 58 24 14 38 29 38 41 0 28 -30 30 -49
3z m44 4 c0 -14 -39 -46 -47 -39 -3 4 2 16 12 27 19 21 35 26 35 12z m-20
-172 c-20 -13 -33 -13 -25 0 3 6 14 10 23 10 15 0 15 -2 2 -10z m21 -280 c10
-6 19 -15 19 -20 0 -17 -26 -11 -45 10 -20 22 -7 27 26 10z m-51 -51 c0 -6 -4
-7 -10 -4 -5 3 -10 11 -10 16 0 6 5 7 10 4 6 -3 10 -11 10 -16z"/>
<path d="M3865 1440 c10 -11 20 -20 23 -20 3 0 -3 9 -13 20 -10 11 -20 20 -23
20 -3 0 3 -9 13 -20z"/>
<path d="M2677 1419 c-10 -6 -22 -21 -27 -33 -5 -13 -28 -33 -52 -45 -59 -29
-32 -27 32 3 28 13 45 26 38 28 -18 7 19 48 44 48 25 0 23 -16 -4 -34 -25 -18
-17 -21 13 -6 27 15 25 50 -3 50 -13 0 -31 -5 -41 -11z"/>
<path d="M2422 1388 c-7 -7 -12 -20 -12 -30 0 -17 1 -17 25 -2 27 17 34 44 12
44 -7 0 -18 -5 -25 -12z m28 -2 c0 -3 -4 -8 -10 -11 -5 -3 -10 -1 -10 4 0 6 5
11 10 11 6 0 10 -2 10 -4z"/>
<path d="M2870 1354 c-19 -14 -61 -37 -93 -51 -31 -14 -56 -28 -53 -30 2 -2
22 5 45 16 45 23 66 27 55 9 -4 -7 -3 -8 5 -4 6 4 9 11 6 16 -3 5 4 8 15 7 19
-1 19 -2 -2 -27 -12 -14 -34 -35 -48 -47 -14 -13 -20 -23 -15 -23 19 0 135
130 135 151 0 14 -12 10 -50 -17z"/>
<path d="M3428 1293 c12 -2 32 -2 45 0 12 2 2 4 -23 4 -25 0 -35 -2 -22 -4z"/>
<path d="M3348 1283 c7 -3 16 -2 19 1 4 3 -2 6 -13 5 -11 0 -14 -3 -6 -6z"/>
<path d="M3543 1253 c9 -2 23 -2 30 0 6 3 -1 5 -18 5 -16 0 -22 -2 -12 -5z"/>
<path d="M2710 1210 c-34 -7 -34 -7 -5 -8 17 0 39 3 50 8 24 10 4 10 -45 0z"/>
<path d="M2930 1142 c19 -11 51 -22 70 -26 28 -5 25 -2 -15 13 -86 32 -91 33
-55 13z"/>
<path d="M2998 1153 c6 -2 18 -2 25 0 6 3 1 5 -13 5 -14 0 -19 -2 -12 -5z"/>
<path d="M2553 1096 c20 -8 47 -22 59 -31 26 -18 74 -20 84 -3 12 19 -28 39
-76 37 -25 -1 -58 1 -75 5 -24 5 -23 3 8 -8z m127 -21 c11 -13 8 -15 -17 -15
-16 0 -38 7 -49 15 -18 13 -17 14 17 15 21 0 42 -7 49 -15z"/>
<path d="M3048 1103 c6 -2 18 -2 25 0 6 3 1 5 -13 5 -14 0 -19 -2 -12 -5z"/>
<path d="M3105 1090 c27 -12 43 -12 25 0 -8 5 -22 9 -30 9 -10 0 -8 -3 5 -9z"/>
</g>
</svg>
