<?xml version="1.0" standalone="no"?>
<!DOCTYPE svg PUBLIC "-//W3C//DTD SVG 20010904//EN"
 "http://www.w3.org/TR/2001/REC-SVG-20010904/DTD/svg10.dtd">
<svg version="1.0" xmlns="http://www.w3.org/2000/svg"
 width="500.000000pt" height="500.000000pt" viewBox="0 0 500.000000 500.000000"
 preserveAspectRatio="xMidYMid meet">

<g transform="translate(0.000000,500.000000) scale(0.100000,-0.100000)"
fill="#000000" stroke="none">
<path d="M1631 4313 c-27 -33 -18 -43 12 -15 13 12 35 22 50 22 15 0 27 5 27
10 0 6 -15 10 -34 10 -25 0 -40 -7 -55 -27z"/>
<path d="M1673 4283 l-61 -24 46 -112 c25 -62 47 -113 48 -115 1 -2 31 9 67
24 43 18 64 31 60 40 -4 10 -15 9 -55 -7 -28 -11 -52 -18 -53 -17 -10 12 -25
49 -25 61 0 8 18 21 40 30 40 15 54 37 25 37 -9 0 -30 -7 -46 -16 -17 -8 -32
-14 -34 -12 -1 2 -10 18 -19 36 l-17 33 48 21 c58 25 59 26 47 37 -5 6 -34 -1
-71 -16z"/>
<path d="M1444 4173 c-7 -2 11 -46 48 -113 41 -73 65 -107 75 -103 10 4 1 27
-34 93 -59 107 -75 129 -89 123z"/>
<path d="M1196 4011 c-5 -8 130 -201 141 -201 2 0 32 19 64 42 41 28 56 45 49
52 -7 7 -24 0 -56 -22 -25 -18 -49 -30 -54 -27 -5 3 -35 42 -67 85 -55 78 -66
89 -77 71z"/>
<path d="M1017 3852 l-47 -48 88 -87 88 -87 48 49 c29 30 45 54 41 61 -5 8
-21 -1 -49 -29 l-42 -41 -29 30 -29 30 34 35 c23 23 31 38 24 45 -7 7 -21 -2
-44 -25 l-34 -35 -23 22 c-31 29 -29 38 12 78 30 30 37 50 17 50 -4 0 -29 -21
-55 -48z"/>
<path d="M817 3634 c-31 -40 -57 -78 -57 -84 0 -19 18 -10 42 20 l24 31 85
-65 c46 -36 87 -66 92 -66 26 0 -4 36 -73 89 -44 34 -80 65 -80 67 0 3 11 20
25 38 19 25 22 35 12 39 -8 3 -35 -24 -70 -69z"/>
<path d="M1470 3595 c0 -13 131 -15 1115 -15 984 0 1115 2 1115 15 0 13 -131
15 -1115 15 -984 0 -1115 -2 -1115 -15z"/>
<path d="M1555 3503 c-4 -10 -60 -157 -125 -328 -65 -170 -121 -317 -125 -326
-3 -9 -26 -24 -51 -34 -24 -9 -44 -21 -44 -26 0 -5 43 -9 95 -9 101 0 116 9
63 36 -18 9 -35 18 -37 20 -2 2 11 44 30 94 l33 90 122 0 122 0 36 -101 c20
-55 36 -102 36 -104 0 -2 -16 -7 -35 -11 -72 -13 -31 -24 95 -24 79 0 130 4
130 10 0 5 -18 13 -39 16 l-40 6 -39 112 c-22 61 -77 220 -123 353 -46 134
-87 243 -90 243 -4 0 -10 -8 -14 -17z m75 -460 c0 -2 -49 -3 -110 -3 -63 0
-110 4 -110 10 0 8 62 179 100 275 11 29 14 25 66 -125 30 -85 54 -156 54
-157z"/>
<path d="M3366 3505 c-84 -30 -126 -87 -134 -181 -6 -68 25 -135 77 -169 20
-13 91 -39 158 -58 151 -43 184 -61 202 -113 52 -150 -120 -252 -294 -175 -42
18 -49 27 -86 106 -23 47 -45 85 -50 85 -5 0 -9 -52 -9 -115 0 -126 2 -129 57
-95 32 19 32 19 80 -2 67 -31 181 -31 240 0 55 29 91 77 103 140 10 53 1 134
-20 171 -19 36 -72 71 -138 90 -37 11 -100 30 -140 41 -43 13 -86 32 -104 49
-27 24 -31 35 -31 75 0 51 18 84 67 120 22 17 42 21 99 21 111 -1 138 -14 172
-86 47 -98 55 -96 55 15 0 53 -2 96 -5 96 -3 0 -22 -7 -41 -15 -31 -13 -42
-13 -92 0 -69 18 -115 18 -166 0z"/>
<path d="M1920 3490 c0 -5 18 -13 40 -16 l40 -7 0 -327 0 -328 -40 -7 c-80
-14 -37 -25 95 -25 135 0 178 12 90 26 l-45 6 0 160 0 161 70 -5 c110 -8 131
-35 156 -198 8 -52 22 -105 30 -118 32 -48 115 -54 174 -12 40 29 26 48 -17
23 -44 -24 -59 -8 -73 80 -22 139 -48 183 -127 213 l-45 18 47 14 c26 7 59 21
72 29 57 37 80 148 47 219 -38 79 -121 104 -351 104 -101 0 -163 -4 -163 -10z
m314 -20 c22 -5 53 -22 70 -39 28 -28 31 -38 34 -103 6 -129 -42 -178 -170
-178 l-68 0 0 165 0 165 48 0 c26 0 65 -5 86 -10z"/>
<path d="M2560 3400 c0 -131 15 -133 61 -10 l33 90 73 0 73 0 0 -334 0 -334
-40 -7 c-79 -13 -38 -25 90 -25 79 0 130 4 130 10 0 5 -18 13 -40 16 l-40 7 0
334 0 334 76 -3 77 -3 32 -85 c20 -53 38 -86 49 -88 14 -3 16 9 16 97 l0 101
-295 0 -295 0 0 -100z"/>
<path d="M635 3360 c-4 -6 -3 -16 3 -23 124 -160 156 -197 164 -189 7 7 1 22
-16 45 l-26 34 24 44 c23 40 29 44 71 49 81 9 54 25 -65 37 -147 15 -148 15
-155 3z m143 -36 c6 -4 -31 -64 -39 -64 -4 0 -22 18 -39 41 l-32 40 53 -7 c30
-4 56 -8 57 -10z"/>
<path d="M4240 2863 c0 -33 33 -201 62 -313 32 -121 48 -162 79 -196 22 -24
69 -156 69 -195 0 -15 -3 -35 -6 -43 -9 -23 -62 63 -85 136 -21 72 -49 117
-96 159 -37 32 -37 32 -121 26 -47 -4 -87 -8 -89 -11 -14 -13 73 -91 147 -133
148 -83 153 -87 186 -139 65 -102 67 -164 11 -334 l-22 -65 -7 149 c-9 188
-26 242 -68 216 -19 -12 -4 -73 25 -109 20 -23 25 -40 25 -82 0 -39 -3 -50
-10 -39 -5 8 -10 27 -10 41 0 35 -34 78 -50 63 -15 -15 -3 -61 20 -77 39 -28
53 -76 47 -167 -3 -47 -10 -96 -15 -110 l-10 -25 -5 25 c-4 14 -13 63 -22 110
-33 177 -38 196 -52 220 -8 14 -34 40 -56 58 -40 33 -41 33 -116 26 -42 -3
-78 -8 -80 -10 -7 -7 24 -37 79 -78 30 -22 63 -51 73 -63 11 -13 36 -32 58
-43 21 -11 45 -31 54 -43 15 -24 55 -200 55 -247 0 -15 -24 -78 -54 -141 -43
-90 -67 -126 -111 -169 -31 -30 -65 -70 -77 -88 -11 -18 -22 -32 -24 -30 -7 8
37 251 50 276 21 41 49 196 42 234 -7 39 -41 98 -56 98 -24 0 -49 -87 -56
-193 -7 -103 -6 -109 16 -140 l24 -31 -17 -113 c-18 -124 -44 -188 -103 -252
-34 -38 -135 -121 -147 -121 -3 0 10 24 29 52 19 29 34 55 34 59 0 3 22 18 48
32 62 34 84 58 71 77 -8 12 -16 8 -44 -24 -45 -50 -44 -40 0 30 36 55 44 97
23 110 -21 13 -50 -37 -44 -76 5 -30 -1 -45 -34 -95 -37 -55 -40 -58 -40 -32
0 16 7 41 16 57 10 15 14 35 10 45 -6 17 -7 17 -26 0 -17 -15 -20 -31 -20 -97
l0 -79 -46 -47 c-28 -28 -43 -39 -39 -27 4 11 18 65 32 120 13 55 33 114 43
130 32 51 43 116 30 166 -7 24 -19 52 -28 63 -31 33 -162 92 -162 71 0 -2 10
-28 21 -57 47 -116 89 -254 89 -289 0 -55 -27 -177 -48 -211 -23 -40 -133 -94
-286 -142 -65 -21 -120 -35 -122 -33 -2 2 26 16 64 31 37 15 88 41 114 57 54
35 168 179 168 213 0 12 5 27 11 33 6 6 8 16 4 23 -9 14 -42 -15 -81 -72 -34
-48 -155 -138 -243 -180 -36 -17 -92 -49 -125 -71 -73 -49 -148 -76 -229 -82
-34 -2 -53 -2 -42 1 109 29 143 55 235 182 33 45 15 61 -31 26 -54 -41 -195
-104 -294 -132 -112 -31 -211 -33 -325 -7 l-85 20 47 5 c25 3 95 2 154 -3 117
-9 154 -5 154 19 0 23 -26 27 -61 10 -21 -10 -56 -16 -98 -15 l-66 1 65 15
c36 8 97 25 135 39 39 14 91 33 117 43 86 30 118 82 55 89 -36 4 -76 -22 -88
-58 -7 -20 -24 -34 -58 -49 -42 -18 -120 -40 -144 -41 -19 0 61 94 90 106 17
8 41 26 52 41 19 23 20 29 7 41 -22 22 -56 5 -75 -37 -35 -79 -130 -171 -176
-171 -14 0 -14 3 2 28 9 15 29 39 45 54 31 30 35 43 14 51 -23 9 -53 -20 -60
-57 -4 -19 -16 -46 -27 -60 -17 -22 -28 -26 -72 -26 -34 0 -63 7 -84 20 l-33
20 0 -24 c0 -18 8 -27 33 -36 20 -8 75 -58 145 -133 91 -98 120 -136 147 -196
37 -83 56 -106 79 -98 25 10 19 25 -29 71 -53 52 -60 78 -10 40 19 -14 35 -30
35 -35 0 -9 58 -49 70 -49 3 0 11 4 19 9 34 22 -35 90 -78 76 -21 -6 -111 63
-150 116 -21 28 -22 31 -5 24 10 -4 56 -20 102 -36 45 -15 96 -37 111 -49 18
-12 45 -20 70 -20 34 0 41 3 41 20 0 29 -54 54 -102 46 -27 -5 -61 0 -111 16
l-72 23 55 5 c42 4 56 9 58 22 5 24 -49 25 -83 2 -31 -20 -76 -11 -130 26 -47
33 -101 88 -93 95 5 5 101 -19 301 -75 122 -34 169 -56 285 -132 193 -126 212
-137 212 -124 0 7 -6 19 -14 25 -8 7 -17 25 -21 40 -13 61 -39 86 -134 127
-50 21 -91 42 -91 47 0 21 132 -8 235 -51 39 -16 106 -37 150 -47 44 -10 114
-34 155 -55 106 -53 120 -56 120 -30 0 11 -10 30 -22 41 -150 132 -140 126
-239 148 -52 11 -107 22 -124 23 -24 2 -17 6 35 20 36 10 90 25 120 33 76 21
500 21 620 0 104 -18 110 -18 110 -2 0 22 -30 42 -112 76 -71 29 -86 31 -191
31 -76 0 -129 -5 -157 -15 -75 -26 -68 -15 15 24 44 21 117 61 162 88 62 38
104 55 173 72 l93 21 76 -34 c42 -19 100 -39 129 -45 29 -6 67 -18 83 -27 17
-8 33 -14 35 -11 2 2 0 26 -5 53 -11 59 -60 109 -118 120 -45 9 -168 -11 -200
-31 -12 -8 -60 -24 -105 -34 l-83 -19 50 45 c98 88 115 96 213 97 77 0 93 -3
139 -28 57 -30 93 -28 93 4 0 22 -26 31 -85 29 -22 -1 -71 2 -108 6 -72 8 -73
16 -4 35 71 20 287 -24 287 -59 0 -11 46 -31 71 -31 11 0 22 7 26 17 9 22 -31
53 -71 53 -17 0 -56 7 -86 15 -30 8 -73 15 -95 15 -50 0 -38 11 45 41 48 17
88 23 152 23 68 1 91 5 104 18 44 44 -38 68 -91 27 -14 -12 -54 -28 -88 -35
-34 -7 -71 -16 -82 -20 -18 -6 -17 -4 5 20 13 15 35 32 49 39 37 18 68 64 53
79 -20 20 -61 -7 -81 -54 -30 -70 -108 -127 -173 -128 -13 0 -57 -16 -98 -34
-41 -19 -77 -32 -79 -30 -2 2 18 30 45 61 27 32 62 75 78 96 33 45 147 121
197 132 93 20 271 181 245 223 -7 11 -86 -2 -119 -19 -44 -24 -146 -131 -152
-160 -6 -27 -43 -62 -91 -88 -21 -10 -20 -7 6 42 16 28 31 70 35 92 12 74 66
223 93 259 15 19 52 67 82 106 37 50 68 79 101 95 74 38 123 102 158 207 17
51 29 93 27 96 -7 7 -160 -68 -183 -90 -28 -27 -75 -170 -67 -203 4 -16 -1
-35 -17 -57 -35 -50 -101 -129 -105 -125 -2 2 6 35 17 73 13 43 26 137 35 249
9 99 18 202 21 228 4 39 0 61 -21 107 -14 31 -26 65 -26 73 0 50 -53 175 -111
261 -61 91 -89 116 -89 79z m68 -178 c28 -103 71 -216 72 -187 0 7 -7 27 -16
44 -19 38 -77 248 -70 255 11 12 88 -127 106 -192 11 -38 30 -97 41 -130 25
-70 34 -150 21 -184 -7 -21 -13 -9 -42 84 -19 59 -36 103 -37 98 -2 -5 8 -41
21 -81 14 -40 23 -72 22 -72 -2 0 -20 24 -40 53 -37 54 -70 160 -101 322 -28
147 -18 143 23 -10z m-68 -277 c40 -28 100 -112 100 -141 0 -19 -4 -17 -37 15
-21 20 -73 59 -117 86 -58 37 -73 51 -60 55 44 11 83 6 114 -15z m-50 -54 c58
-35 125 -92 118 -100 -7 -6 -147 80 -188 116 -32 28 -33 30 -10 24 14 -3 50
-21 80 -40z m546 -199 c-34 -94 -107 -175 -156 -175 -14 0 49 120 66 127 7 3
32 30 54 61 l42 57 -61 -65 c-34 -36 -75 -92 -93 -125 -36 -70 -47 -60 -23 22
28 94 41 112 107 143 84 40 93 34 64 -45z m-396 -104 c-1 -25 -1 -25 -15 -7
-8 11 -15 31 -15 45 1 25 1 25 15 7 8 -11 15 -31 15 -45z m-148 -48 c37 -38
49 -61 62 -118 l7 -30 -20 32 c-11 18 -35 40 -53 49 -18 9 -45 30 -61 45 -16
16 -39 32 -53 35 -42 11 -26 24 29 24 48 0 56 -3 89 -37z m-68 -32 c25 -22 55
-42 66 -46 11 -4 27 -19 35 -35 14 -26 13 -28 -5 -23 -11 3 -42 26 -68 52 -26
25 -61 56 -77 68 -22 16 -25 22 -13 22 9 1 37 -17 62 -38z m186 -24 c0 -5 -4
-5 -10 -2 -5 3 -10 14 -10 23 0 15 2 15 10 2 5 -8 10 -19 10 -23z m-241 -376
c2 -139 -8 -181 -29 -127 -13 35 8 266 24 266 2 0 4 -63 5 -139z m39 114 c7
-14 12 -43 12 -63 -1 -44 -24 -169 -33 -179 -4 -3 -7 55 -7 130 0 76 4 137 8
137 5 0 14 -11 20 -25z m492 -60 c0 -2 -39 -36 -87 -76 -49 -40 -96 -79 -105
-87 -15 -12 -18 -13 -18 -1 0 23 135 147 171 157 19 6 35 11 37 11 1 1 2 -1 2
-4z m30 -17 c0 -32 -208 -193 -226 -175 -3 3 17 23 43 46 173 148 183 155 183
129z m-345 -177 c-21 -43 -29 -39 -8 4 9 19 18 33 21 31 2 -2 -4 -18 -13 -35z
m-536 -46 c38 -19 52 -33 65 -65 20 -51 20 -79 -1 -132 l-17 -42 -12 74 c-19
112 -22 119 -62 156 -44 40 -38 42 27 9z m-21 -28 c29 -31 65 -187 43 -187 -4
0 -24 47 -43 105 -19 58 -32 105 -28 105 4 0 16 -10 28 -23z m756 -20 c-6 -17
-34 -31 -34 -17 0 11 31 42 36 37 3 -2 2 -11 -2 -20z m172 -48 c3 -6 0 -15 -7
-20 -19 -12 -69 -11 -69 0 0 5 12 14 28 19 36 14 40 14 48 1z m-701 -91 c-11
-36 -25 -45 -25 -17 0 27 7 39 22 39 5 0 6 -10 3 -22z m175 18 c0 -2 -8 -10
-17 -17 -16 -13 -17 -12 -4 4 13 16 21 21 21 13z m454 -92 c9 -3 16 -10 16
-15 0 -14 -34 -11 -56 6 -19 14 -19 14 3 15 12 0 28 -3 37 -6z m-174 -24 c0
-13 -20 -13 -40 0 -12 8 -9 10 13 10 15 0 27 -4 27 -10z m-65 -60 c34 -13 75
-58 75 -82 0 -17 -5 -15 -38 12 -47 37 -89 50 -166 50 -37 0 -56 4 -50 9 20
20 137 27 179 11z m-715 -44 c0 -8 -9 -24 -21 -37 -22 -25 -22 -21 1 24 15 30
20 34 20 13z m724 -15 c39 -25 74 -71 39 -53 -10 5 -45 15 -78 22 -58 12 -135
44 -135 57 0 3 31 3 69 1 47 -4 80 -12 105 -27z m-1560 -15 c-8 -21 -54 -50
-54 -35 0 17 30 49 46 49 8 0 11 -6 8 -14z m776 -35 c-19 -36 -85 -82 -207
-144 -67 -34 -120 -63 -118 -65 6 -6 242 117 273 143 47 40 39 13 -9 -30 -54
-48 -271 -147 -287 -130 -3 3 0 5 6 5 7 0 11 5 9 11 -1 6 47 38 108 71 60 33
137 81 170 108 70 56 69 56 55 31z m-610 -11 c0 -16 -48 -42 -72 -38 l-23 3
23 23 c22 22 72 31 72 12z m170 -118 c0 -3 -10 -15 -22 -27 -13 -12 -34 -34
-47 -49 -13 -15 -46 -33 -77 -42 -62 -18 -197 -22 -233 -7 -21 8 -9 13 85 36
60 14 143 41 184 61 65 30 110 41 110 28z m875 -23 c53 -23 56 -34 4 -19 -18
6 -41 10 -49 9 -8 0 16 -9 53 -19 64 -17 112 -40 57 -27 -88 21 -175 28 -264
22 -63 -4 -101 -3 -105 3 -3 6 -20 13 -36 17 -24 5 -27 4 -15 -5 13 -10 12
-11 -3 -6 -10 3 -26 6 -35 7 -9 1 8 9 38 19 40 13 89 18 181 19 108 1 133 -2
174 -20z m-1235 -19 c-20 -13 -33 -13 -25 0 3 6 14 10 23 10 15 0 15 -2 2 -10z
m595 -136 c86 -17 100 -23 160 -77 22 -19 51 -44 63 -54 l24 -19 -23 -1 c-12
-1 -41 9 -64 23 -23 13 -95 38 -160 54 -64 17 -126 35 -137 41 -12 6 -44 20
-72 30 -32 12 -39 17 -19 13 17 -3 34 -1 37 5 8 12 76 6 191 -15z m-306 -52
c84 -37 112 -62 126 -112 6 -21 2 -19 -28 16 -31 35 -139 104 -163 104 -5 0
23 -18 62 -40 68 -38 102 -65 92 -75 -7 -7 -173 102 -171 112 1 4 -12 16 -30
26 l-32 18 30 -6 c17 -4 68 -23 114 -43z m-336 31 c-7 -2 -19 -2 -25 0 -7 3
-2 5 12 5 14 0 19 -2 13 -5z m168 -94 c11 -5 17 -15 13 -21 -8 -13 -58 -3 -87
17 -21 15 -20 15 16 15 21 0 47 -5 58 -11z m-93 -105 c23 -16 29 -34 13 -34
-6 0 -23 11 -38 25 -32 28 -12 35 25 9z m-68 -49 c7 -9 8 -15 2 -15 -5 0 -12
7 -16 15 -3 8 -4 15 -2 15 2 0 9 -7 16 -15z"/>
<path d="M3061 775 c-43 -30 -176 -76 -251 -85 -52 -7 -53 -7 -13 -9 53 -1
191 41 261 81 28 16 52 31 52 34 0 9 -17 2 -49 -21z"/>
<path d="M3735 770 c-16 -4 22 -5 85 -2 63 3 117 6 119 8 8 7 -174 2 -204 -6z"/>
<path d="M3205 616 c22 -8 57 -15 78 -15 53 -1 150 -36 230 -83 38 -22 70 -38
73 -36 6 6 -143 88 -191 105 -22 8 -71 18 -110 23 -38 5 -81 12 -95 15 -14 2
-7 -2 15 -9z"/>
<path d="M2135 2256 c-5 -2 -22 -7 -37 -10 -72 -16 -128 -102 -128 -196 0
-122 50 -167 240 -215 120 -30 150 -44 180 -82 18 -24 21 -38 18 -87 -4 -52
-8 -63 -40 -92 -65 -59 -171 -68 -264 -23 -37 17 -46 30 -80 104 -22 47 -45
85 -51 85 -10 0 -13 -30 -13 -115 0 -73 4 -115 10 -115 6 0 28 9 50 20 38 20
38 20 84 -1 106 -46 221 -31 287 38 47 49 63 99 57 177 -10 123 -51 158 -233
206 -171 46 -205 70 -205 147 0 86 64 137 170 137 108 0 135 -14 176 -95 19
-39 39 -67 44 -64 12 8 13 185 1 185 -5 0 -25 -7 -44 -15 -26 -11 -43 -12 -61
-5 -28 10 -145 22 -161 16z"/>
<path d="M3036 2245 c-84 -30 -126 -87 -134 -181 -6 -68 25 -135 77 -169 20
-13 91 -39 158 -58 151 -43 184 -61 202 -113 52 -150 -120 -252 -294 -175 -42
18 -49 27 -86 106 -23 47 -45 85 -50 85 -5 0 -9 -52 -9 -115 0 -126 2 -129 57
-95 32 19 32 19 80 -2 67 -31 181 -31 240 0 55 29 91 77 103 140 10 53 1 134
-20 171 -19 36 -72 71 -138 90 -37 11 -100 30 -140 41 -43 13 -86 32 -104 49
-27 24 -31 35 -31 75 0 51 18 84 67 120 22 17 42 21 99 21 111 -1 138 -14 172
-86 47 -98 55 -96 55 15 0 53 -2 96 -5 96 -3 0 -22 -7 -41 -15 -31 -13 -42
-13 -92 0 -69 18 -115 18 -166 0z"/>
<path d="M1600 2230 c0 -5 18 -13 40 -16 l40 -7 0 -327 0 -328 -40 -7 c-80
-14 -37 -25 95 -25 135 0 178 12 90 26 l-45 6 0 328 0 328 45 6 c88 14 45 26
-90 26 -82 0 -135 -4 -135 -10z"/>
<path d="M2540 2230 c0 -5 18 -13 40 -16 l40 -7 0 -327 0 -328 -40 -7 c-79
-13 -38 -25 90 -25 79 0 130 4 130 10 0 5 -18 13 -40 16 l-40 7 0 327 0 327
40 7 c22 3 40 11 40 16 0 6 -51 10 -130 10 -79 0 -130 -4 -130 -10z"/>
<path d="M1470 1270 c0 -20 4 -20 1048 -18 923 3 1047 5 1047 18 0 13 -124 15
-1047 18 -1044 2 -1048 2 -1048 -18z"/>
</g>
</svg>
